<svg width="23" height="22" viewBox="0 0 23 22" fill="none" xmlns="http://www.w3.org/2000/svg">
  <g clip-path="url(#clip0_1699_5600)">
    <path
            d="M17.0239 6.81994C16.8949 6.48894 16.7419 6.25294 16.4939 6.00494C16.2459 5.75694 16.0099 5.60294 15.6789 5.47494C15.4289 5.37794 15.0539 5.26194 14.3629 5.23094C13.6159 5.19694 13.3919 5.18994 11.4999 5.18994C9.60794 5.18994 9.38394 5.19694 8.63594 5.23194C7.94494 5.26294 7.56994 5.37894 7.31994 5.47594C6.98994 5.60394 6.75394 5.75794 6.50594 6.00594C6.25794 6.25394 6.10394 6.48994 5.97594 6.81994C5.87894 7.06994 5.76294 7.44494 5.73194 8.13594C5.69694 8.88394 5.68994 9.10794 5.68994 10.9999C5.68994 12.8919 5.69694 13.1159 5.73094 13.8639C5.76194 14.5549 5.87794 14.9299 5.97494 15.1799C6.10394 15.5109 6.25694 15.7469 6.50494 15.9949C6.75294 16.2429 6.98894 16.3969 7.31994 16.5249C7.56994 16.6219 7.94494 16.7379 8.63594 16.7689C9.38394 16.8029 9.60794 16.8099 11.4999 16.8099C13.3919 16.8099 13.6159 16.8029 14.3639 16.7689C15.0549 16.7379 15.4299 16.6219 15.6799 16.5249C16.0109 16.3959 16.2469 16.2429 16.4949 15.9949C16.7429 15.7469 16.8969 15.5109 17.0249 15.1799C17.1219 14.9299 17.2379 14.5549 17.2689 13.8639C17.3029 13.1169 17.3099 12.8929 17.3099 10.9999C17.3099 9.10694 17.3029 8.88394 17.2689 8.13594C17.2369 7.44494 17.1209 7.06994 17.0239 6.81994ZM11.4999 14.6389C9.48994 14.6389 7.86094 13.0099 7.86094 10.9999C7.86094 8.98994 9.48994 7.36094 11.4999 7.36094C13.5099 7.36094 15.1389 8.98994 15.1389 10.9999C15.1389 13.0099 13.5099 14.6389 11.4999 14.6389ZM15.2829 8.06794C14.8129 8.06794 14.4329 7.68694 14.4329 7.21794C14.4329 6.74894 14.8139 6.36794 15.2829 6.36794C15.7519 6.36794 16.1329 6.74894 16.1329 7.21794C16.1329 7.68694 15.7529 8.06794 15.2829 8.06794Z"
            fill="#ffffff"
    />
    <path
            d="M13.8622 11.0002C13.8622 12.3052 12.8042 13.3622 11.5002 13.3622C10.1962 13.3622 9.13818 12.3042 9.13818 11.0002C9.13818 9.69518 10.1962 8.63818 11.5002 8.63818C12.8042 8.63818 13.8622 9.69618 13.8622 11.0002Z"
            fill="#ffffff"
    />
    <path
            d="M11.5 0C5.425 0 0.5 4.925 0.5 11C0.5 17.075 5.425 22 11.5 22C17.575 22 22.5 17.075 22.5 11C22.5 4.925 17.575 0 11.5 0ZM18.544 13.922C18.51 14.676 18.39 15.191 18.215 15.642C18.034 16.108 17.792 16.503 17.398 16.897C17.004 17.291 16.609 17.533 16.143 17.714C15.692 17.889 15.177 18.009 14.423 18.043C13.667 18.077 13.426 18.086 11.501 18.086C9.576 18.086 9.335 18.078 8.579 18.043C7.825 18.009 7.31 17.889 6.859 17.714C6.393 17.533 5.998 17.291 5.604 16.897C5.21 16.503 4.968 16.108 4.787 15.642C4.612 15.191 4.492 14.676 4.458 13.922C4.422 13.166 4.413 12.925 4.413 11C4.413 9.075 4.421 8.834 4.456 8.078C4.49 7.324 4.61 6.809 4.785 6.358C4.966 5.892 5.208 5.497 5.602 5.103C5.996 4.709 6.391 4.467 6.857 4.286C7.309 4.11 7.824 3.99 8.578 3.956C9.334 3.922 9.575 3.913 11.5 3.913C13.425 3.913 13.666 3.921 14.422 3.956C15.176 3.99 15.691 4.11 16.142 4.285C16.608 4.466 17.003 4.708 17.397 5.102C17.791 5.496 18.033 5.891 18.214 6.357C18.389 6.808 18.509 7.323 18.543 8.077C18.577 8.833 18.586 9.074 18.586 10.999C18.586 12.924 18.578 13.166 18.544 13.922Z"
            fill="#ffffff"
    />
  </g>
  <defs>
    <clipPath id="clip0_1699_5600">
      <rect width="22" height="22" fill="#ffffff" transform="translate(0.5)"/>
    </clipPath>
  </defs>
</svg>
