<svg width="23" height="22" viewBox="0 0 23 22" fill="none" xmlns="http://www.w3.org/2000/svg">
  <g clip-path="url(#clip0_1699_5596)">
    <path
            d="M11.5 0C5.425 0 0.5 4.925 0.5 11C0.5 16.49 4.523 21.041 9.781 21.866V14.18H6.988V11H9.781V8.577C9.781 5.82 11.423 4.297 13.936 4.297C15.14 4.297 16.398 4.512 16.398 4.512V7.219H15.011C13.645 7.219 13.218 8.067 13.218 8.937V11H16.269L15.781 14.18H13.218V21.867C18.477 21.041 22.5 16.49 22.5 11C22.5 4.925 17.575 0 11.5 0Z"
            fill="#ffffff"
    />
  </g>
  <defs>
    <clipPath id="clip0_1699_5596">
      <rect width="22" height="22" fill="#ffffff" transform="translate(0.5)"/>
    </clipPath>
  </defs>
</svg>
