<svg width="23" height="22" viewBox="0 0 23 22" fill="none" xmlns="http://www.w3.org/2000/svg">
  <g clip-path="url(#clip0_1699_5598)">
    <path
            d="M22.5 11C22.5 17.077 17.577 22 11.5 22C5.423 22 0.5 17.077 0.5 11C0.5 4.923 5.423 0 11.5 0C17.577 0 22.5 4.923 22.5 11ZM9.487 16.802C14.365 16.802 17.033 12.76 17.033 9.256C17.033 9.14 17.033 9.025 17.027 8.915C17.544 8.541 17.995 8.073 18.353 7.54C17.88 7.749 17.369 7.892 16.829 7.958C17.379 7.628 17.797 7.111 17.995 6.489C17.484 6.792 16.917 7.012 16.312 7.133C15.828 6.616 15.141 6.297 14.376 6.297C12.913 6.297 11.725 7.485 11.725 8.948C11.725 9.157 11.747 9.361 11.797 9.553C9.592 9.443 7.639 8.387 6.33 6.781C6.104 7.172 5.972 7.629 5.972 8.113C5.972 9.031 6.439 9.846 7.154 10.318C6.719 10.307 6.312 10.186 5.955 9.988C5.955 9.999 5.955 10.01 5.955 10.021C5.955 11.308 6.868 12.375 8.083 12.622C7.863 12.683 7.626 12.716 7.385 12.716C7.214 12.716 7.049 12.699 6.884 12.667C7.219 13.723 8.198 14.488 9.359 14.509C8.452 15.218 7.308 15.642 6.065 15.642C5.851 15.642 5.642 15.631 5.432 15.603C6.594 16.362 7.991 16.802 9.487 16.802Z"
            fill="#ffffff"
    />
  </g>
  <defs>
    <clipPath id="clip0_1699_5598">
      <rect width="22" height="22" fill="#ffffff" transform="translate(0.5)"/>
    </clipPath>
  </defs>
</svg>
