<svg width="23" height="22" viewBox="0 0 23 22" fill="none" xmlns="http://www.w3.org/2000/svg">
  <g clip-path="url(#clip0_1699_5604)">
    <path
            d="M11.5 0C5.425 0 0.5 4.925 0.5 11C0.5 17.075 5.425 22 11.5 22C17.575 22 22.5 17.075 22.5 11C22.5 4.925 17.575 0 11.5 0ZM18.344 14.438C18.18 15.053 17.696 15.537 17.081 15.701C15.967 16 11.5 16 11.5 16C11.5 16 7.033 16 5.919 15.701C5.304 15.537 4.82 15.053 4.656 14.438C4.357 13.324 4.357 11 4.357 11C4.357 11 4.357 8.676 4.655 7.562C4.82 6.947 5.304 6.463 5.919 6.299C7.033 6 11.5 6 11.5 6C11.5 6 15.967 6 17.081 6.299C17.696 6.463 18.18 6.947 18.344 7.562C18.643 8.676 18.643 11 18.643 11C18.643 11 18.643 13.324 18.344 14.438Z"
            fill="#ffffff"
    />
    <path
            d="M10.0708 13.1429L13.7828 10.9999L10.0708 8.85693V13.1429Z"
            fill="#ffffff"
    />
  </g>
  <defs>
    <clipPath id="clip0_1699_5604">
      <rect width="22" height="22" fill="#ffffff" transform="translate(0.5)"/>
    </clipPath>
  </defs>
</svg>
